<svg xmlns="http://www.w3.org/2000/svg" xmlns:xlink="http://www.w3.org/1999/xlink"><symbol id="bread-products" viewBox="0 0 88.8 72.6">
    <g>
	<path class="st0" d="M72.6,0H31.9c-3.5,0-6.8,0.9-9.6,2.6c-2.5,1.5-4.5,3.7-5.6,6.1h-0.5C7.3,8.7,0,14.6,0,21.8v12.3
		C0,34.6,0.4,35,0.9,35H4v31.1c0,3.6,3.5,6.5,7.9,6.5h49.2c4.4,0,7.9-2.9,7.9-6.5V64h7.8c4.4,0,7.9-2.9,7.9-6.5V26.3h3.1
		c0.5,0,0.9-0.4,0.9-0.9V13.2C88.8,5.9,81.5,0,72.6,0z M76.9,62.2H69V35h3.1c0.5,0,0.9-0.4,0.9-0.9V21.8c0-7.3-7.3-13.2-16.2-13.2
		H18.7c2.3-4.1,7.6-6.9,13.2-6.9h40.7c8,0,14.4,5.1,14.4,11.4v11.4h-3.1c-0.5,0-0.9,0.4-0.9,0.9v32C83,60.1,80.2,62.2,76.9,62.2z
		 M67.3,63.1v3c0,2.6-2.8,4.8-6.1,4.8H11.9c-3.4,0-6.1-2.1-6.1-4.8v-32c0-0.5-0.4-0.9-0.9-0.9H1.8V21.8c0-6.3,6.5-11.4,14.4-11.4
		h1.1h39.6c8,0,14.4,5.1,14.4,11.4v11.4h-3.1c-0.5,0-0.9,0.4-0.9,0.9V63.1z"/>
        <path class="st0" d="M54.7,28.9c0.5,0,0.9-0.4,0.9-0.9c0-0.5-0.4-0.9-0.9-0.9h-5v-5c0-0.5-0.4-0.9-0.9-0.9s-0.9,0.4-0.9,0.9v5H37.6
		v-5c0-0.5-0.4-0.9-0.9-0.9c-0.5,0-0.9,0.4-0.9,0.9v5H25.6v-5c0-0.5-0.4-0.9-0.9-0.9c-0.5,0-0.9,0.4-0.9,0.9v5h-5
		c-0.5,0-0.9,0.4-0.9,0.9c0,0.5,0.4,0.9,0.9,0.9h5v10.3h-5c-0.5,0-0.9,0.4-0.9,0.9s0.4,0.9,0.9,0.9h5v10.3h-5
		c-0.5,0-0.9,0.4-0.9,0.9s0.4,0.9,0.9,0.9h5v5c0,0.5,0.4,0.9,0.9,0.9c0.5,0,0.9-0.4,0.9-0.9v-5h10.3v5c0,0.5,0.4,0.9,0.9,0.9
		c0.5,0,0.9-0.4,0.9-0.9v-5h10.3v5c0,0.5,0.4,0.9,0.9,0.9s0.9-0.4,0.9-0.9v-5h5c0.5,0,0.9-0.4,0.9-0.9s-0.4-0.9-0.9-0.9h-5V41h5
		c0.5,0,0.9-0.4,0.9-0.9s-0.4-0.9-0.9-0.9h-5V28.9H54.7z M35.9,39.2H25.6V28.9h10.3V39.2z M35.9,41v10.3H25.6V41H35.9z M37.6,41
		h10.3v10.3H37.6V41z M37.6,39.2V28.9h10.3v10.3H37.6z"/>
</g>
</symbol><symbol id="canning" viewBox="0 0 66.6 75.2">
	<path class="st0" d="M49.7,75H16.9c-3.3,0-6.3-2.1-7.5-5.3l-7.1-20C-2,37.5,0.6,24,9.2,14.4V8.8c0-0.5,0.4-1,1-1h46.1
		c0.5,0,1,0.4,1,1v5.6C66,24,68.6,37.5,64.3,49.7l-7.1,20C56,72.9,53,75,49.7,75z M11.2,9.8v5c0,0.2-0.1,0.5-0.3,0.7
		C2.6,24.6,0,37.4,4.2,49.1l7.1,20c0.8,2.4,3.1,4,5.6,4h32.8c2.5,0,4.8-1.6,5.6-4l7.1-20c4.1-11.6,1.5-24.5-6.8-33.6
		c-0.2-0.2-0.3-0.4-0.3-0.7v-5H11.2z"/>
        <path class="st0" d="M59.4,9.8H7.1c-0.5,0-1-0.4-1-1V4c0-2.1,1.7-3.8,3.8-3.8h46.7c2.1,0,3.8,1.7,3.8,3.8v4.8
		C60.4,9.4,60,9.8,59.4,9.8z M8.1,7.9h50.3V4c0-1-0.8-1.8-1.8-1.8H9.9C8.9,2.2,8.1,3,8.1,4V7.9z"/>
        <path class="st0" d="M33.3,60c-10.8,0-19.5-8.8-19.5-19.5c0-10.8,8.8-19.5,19.5-19.5c10.8,0,19.5,8.8,19.5,19.5
		C52.8,51.3,44.1,60,33.3,60z M33.3,22.9c-9.7,0-17.6,7.9-17.6,17.6c0,9.7,7.9,17.6,17.6,17.6c9.7,0,17.6-7.9,17.6-17.6
		C50.9,30.8,43,22.9,33.3,22.9z"/>
        <path class="st0" d="M33.3,66.9c-2.9,0-5.3-2.4-5.3-5.3v-3.1c0-0.3,0.1-0.6,0.4-0.8c0.2-0.2,0.5-0.3,0.8-0.2c2.8,0.7,5.4,0.7,8.1,0
		c0.3-0.1,0.6,0,0.8,0.2c0.2,0.2,0.4,0.5,0.4,0.8v3.1C38.6,64.6,36.2,66.9,33.3,66.9z M30,59.7v1.9c0,1.8,1.5,3.3,3.3,3.3
		c1.8,0,3.3-1.5,3.3-3.3v-1.9C34.4,60.1,32.2,60.1,30,59.7z"/>
        <path class="st0" d="M37.6,23.4c-0.1,0-0.2,0-0.2,0c-2.8-0.7-5.4-0.7-8.1,0c-0.3,0.1-0.6,0-0.8-0.2C28.1,23,28,22.7,28,22.4V8.8
		c0-0.5,0.4-1,1-1h8.6c0.5,0,1,0.4,1,1v13.6c0,0.3-0.1,0.6-0.4,0.8C38,23.3,37.8,23.4,37.6,23.4z M33.3,20.9c1.1,0,2.2,0.1,3.3,0.3
		V9.8H30v11.4C31.1,21,32.2,20.9,33.3,20.9z"/>
        <path class="st0" d="M45.3,37.3H21.3c-0.5,0-1-0.4-1-1s0.4-1,1-1h23.9c0.5,0,1,0.4,1,1S45.8,37.3,45.3,37.3z"/>
        <path class="st0" d="M45.3,47.5H21.3c-0.5,0-1-0.4-1-1s0.4-1,1-1h23.9c0.5,0,1,0.4,1,1S45.8,47.5,45.3,47.5z"/>
        <path class="st0" d="M22.4,15.8H10.2c-0.5,0-1-0.4-1-1c0-0.5,0.4-1,1-1h12.2c0.5,0,1,0.4,1,1C23.4,15.3,22.9,15.8,22.4,15.8z"/>
        <path class="st0" d="M56.4,15.8H44.2c-0.5,0-1-0.4-1-1c0-0.5,0.4-1,1-1h12.2c0.5,0,1,0.4,1,1C57.4,15.3,56.9,15.8,56.4,15.8z"/>
</symbol><symbol id="drinks" viewBox="0 0 158.1 95.1">
<path d="M76.5,0c15.7,0,31.4,0,47,0c5.9,0,10.5,1.9,12.5,7.9c0.4,1.3,0.2,3.5,0.2,3.5c0.2,0.2,0.5,0.2,1,0.2c2.2,0,4.5,0.3,6.6,1.1
	c7,2.6,11.1,8,12.2,15.7c0.8,9.9-7.7,17.6-14.8,22.5c-2.6,1.8-6,2.9-9.1,3.3c-2.6,0.4-4.9,0.4-7.7,0.3c0,0-2.2,3-5.2,6.3
	c-1.2,1.3-2.5,2.7-4.4,1.3c-2.4-1.8-0.6-2,0.9-4.1c10.2-13.6,14.5-29.2,16-45.8c0.5-5.3-2-7.5-8.2-7.5c-14.3-0.1-28.7,0-43,0
	c-16.6,0-33.3,0-49.9,0c-8.4,0-10.3,2.2-9.1,10.3c2.3,15.4,5.8,30.3,15.8,42.9c0.9,1.1,2.1,2.7,0.6,4c-1.9,1.7-3.2,0-4.2-1.3
	C25.9,51,21.9,39.8,19,28.1c-1.3-5.2-2.1-10.5-2.3-15.8C16.4,4.4,20.2,0.1,28.3,0C44.3-0.1,60.4,0,76.5,0z M151.2,29.8
	c0.1-6.1-5.3-12.5-11.1-13.4c-2.3-0.3-4.2-0.2-4.6,2.7c-1.6,9.6-3.8,19-7.9,27.9c-0.4,0.9-1.4,2.3-1.6,2.8c-0.2,0.4,1.4,0.4,3.2,0.4
	C138.2,50.2,151,39.2,151.2,29.8z"/>
    <path d="M11.5,76.2c8.7,4.1,15.1,8,19.5,12.6c1.7,1.7,4.1,1.8,6.4,1.8c27.7,0,55.4,0,83.1,0c2.3,0,4.3-0.1,4.9-0.7
	c4.4-4.5,14.7-10,22.5-13.3c0,0-9.9-0.2-11.9-0.2c-26-0.1-52,0-78-0.1c-1.7,0-3.5,0-5.2-0.2c-1.1-0.1-2.3-0.7-2.1-2.2
	c0.1-1.3,1-2,2.3-2.1c1.1,0,2.3-0.1,3.4-0.1c31.7,0,63.5,0,95.2,0c1,0,1.9,0,2.9,0c1.6,0.1,3.1,0.3,3.4,2.3c0.4,2.1-0.7,3.5-2.4,4
	c-10.2,2.9-19.2,8.1-27.1,15.2c-2,1.8-4.6,1.6-7.1,1.6c-28.3,0-56.6,0-84.9,0c-3.4,0-6.5-0.7-8.9-3.1C20.9,85.4,12.7,81.7,4,78.7
	c-2.1-0.7-4.2-1.5-4-4c0.2-2.9,2.7-2.7,4.8-2.8c7.3,0,14.5,0,21.8,0c1.6,0,3.9-0.4,3.9,2.1c0,2.4-2.2,2.1-3.9,2.3
	C23.1,76.7,15.8,76.6,11.5,76.2z"/>
    <path d="M36.7,25c-0.2-1.4,0.2-2.7,2-3c2.1-0.4,2.2,1.3,2.7,2.8c1.6,5,3.3,10.1,5.1,15c0.5,1.4,1.8,2.8,0,3.9c-2,1.2-2.9,0.5-4-1.8
	C40.3,36.5,38.2,31.3,36.7,25z"/>
</symbol><symbol id="fish-industry" viewBox="0 0 196.4 75">
<path d="M64,75c-6-0.1-12-0.2-17.6-2.8c-1.2-0.5-2.9-0.9-2.3-2.7c0.5-1.6,2.2-1.5,3.4-1.1c31.9,8.5,56-5.2,77.2-27.2
	c7-7.3,7.1-7.5-0.4-14C110.1,14.6,93.9,6.6,74.6,4.5C52.8,2.1,34.4,10,17,21.6c-3.7,2.5-7,5.5-10.5,8.3c-2.1,1.7-2.5,3.6-1.6,6.2
	c3.3,9.3,8.5,17.2,16.9,22.7c8.1,5.4,13.5,3.8,18.1-4.9c3.6-6.8,5.8-14.1,6.9-21.7c0.2-1.6-0.1-3.9,2.2-3.7c2.3,0.2,1.7,2.6,1.5,4.1
	c-0.7,9.2-3.4,18-8.4,25.8c-6.1,9.4-15.1,10.4-24.8,2.9c-9-7-14.8-16.3-17.2-27.7c-0.4-2.1-0.1-3.5,1.4-4.9
	C17.4,14.3,35.1,4,56.6,0.9c29.3-4.2,53.1,7,73.9,26.3c3.3,3.1,5.1,2.8,8.1,0c7.3-6.7,15.5-11.8,25.5-13.5
	c13-2.2,22.9,3.1,31.2,12.6c1.7,1.9,1.2,3.8-0.4,5.8c-4.7,5.8-10.3,9.9-18.1,10c-3.8,0-4.8,1.7-4.6,5.3c0.5,9.8-2.1,18.4-10.3,24.5
	c-4.1,3-5.3,2.6-7.2-2.1c-4.2-10.5-10.3-20-17.2-28.9c-2.3-2.9-3.6-2.9-6.1-0.3c-9.2,9.9-18.8,19.2-31.1,25.4
	C88.9,71.7,76.9,75.2,64,75z M174.2,38.4c5.7,0.7,10.8-2.2,15.2-6.6c1.7-1.7,2.1-3.4,0.3-5.2c-6.5-6.5-14-10.5-23.6-9.1
	c-10.3,1.5-18.3,7.4-25.9,14c-2.4,2.1-1.9,3.8-0.2,5.8c7,8.5,12.7,17.8,17.2,27.8c1.7,3.8,3.4,3,5.3,0.5c4.9-6.2,7-13.2,5.6-21
	C167.1,38.2,166.9,38.3,174.2,38.4z"/>
    <path d="M67.6,36.3c-0.4,9-2.7,16-6.2,22.6c-0.6,1.2-1.5,2.2-2.3,3.2c-0.9,1-2,1.9-3.4,1c-1.6-1.1-0.5-2.6,0.2-3.5
	c3.5-4.7,5.3-10.1,6.8-15.7c0.9-3.5,0.9-6.9,1.2-10.3c0.1-1.5,0.2-3.5,2.1-3.4c2,0.1,1.6,2.2,1.7,3.6C67.6,35.1,67.6,36.4,67.6,36.3
	z"/>
    <path d="M80.6,40.5c0.1,6.5-2.1,12.4-5,18c-0.7,1.3-1.8,4-4,2.7c-1.9-1.1-0.8-3.1,0.2-4.8c3-5.4,4.9-11.2,5-17.5
	c0-1.7-0.5-4.4,2-4.3c2.7,0,1.4,2.8,1.7,4.4C80.7,39.5,80.6,40,80.6,40.5z"/>
    <path d="M21.4,37.8c-3-0.3-4.5-1.5-4.6-4.1c-0.1-2.6,1.5-4.1,3.8-4.2c2.6-0.1,4.4,1.7,4.4,4.3C25.1,36.2,23.3,37.5,21.4,37.8z"/>
</symbol><symbol id="horeca" viewBox="0 0 248.9 165.4">

		<path class="st0" d="M213.9,17.8c-7,9.8-11.7,22.2-7.7,36.6c1.7,6.3,6.3,10.7,10.5,15.3c2.5,2.7,3.7,5.5,3.5,9.3
			c-0.8,11.4-1.5,22.8-2,34.2c-0.5,10.1-0.4,20.2,0.9,30.3c0.2,1.9,0.7,3.7,1.3,5.5c1.2,3.7,2.8,4.9,6.3,4.9c3.5,0,5.1-1.2,6.3-4.9
			c1-3,1.3-6,1.5-9.1c1.3-17.9-0.8-35.6-2.3-53.4c-0.2-2.9-0.4-5.8-0.7-8.7c-0.3-3,0.8-5.3,2.7-7.5c2.5-3,5.1-6,7.4-9.3
			c5.6-8,5.7-16.9,3.2-25.9C243,28,240.2,21.3,234.8,16C228.6,9.8,221.7,9.9,213.9,17.8z"/>

    <circle class="st0" cx="118.4" cy="82.7" r="80.2"/>
    <circle class="st0" cx="118.4" cy="82.7" r="49.3"/>
    <path class="st0" d="M5.4,11.1c-0.1,0.1-0.2,0.3-0.2,0.5c-0.2,2.5-0.4,5.1-0.6,7.6c-0.2,2.7-0.4,5.4-0.6,8.1
		c-0.2,2.3-0.3,4.5-0.5,6.8c-0.2,2.7-0.4,5.4-0.6,8.1c-0.1,1.8-0.2,3.7-0.4,5.5c-0.2,2,0.2,3.9,1,5.7c0.9,2,2.2,3.7,4,5
		c2.2,1.5,3.6,3.5,4.1,6.1c0.3,1.4,0.2,2.9,0.1,4.3c-0.1,1.6-0.1,3.3-0.2,4.9c-0.1,2.1-0.1,4.2-0.2,6.3c-0.1,4-0.2,7.9-0.3,11.9
		c-0.1,2.5-0.1,5-0.2,7.5c-0.1,3.9-0.2,7.9-0.3,11.8c-0.1,2.5-0.1,5-0.2,7.5c-0.1,3.9-0.2,7.8-0.3,11.7c-0.1,2.6-0.2,5.1-0.2,7.7
		c-0.1,3.4-0.2,6.9-0.3,10.3c0,3.5,2.6,6.4,6,6.7c3.4,0.3,6.5-2.1,7.1-5.6c0.2-1.6,0.1-3.3,0-5c0-1.3-0.1-2.6-0.2-4
		c-0.1-3.2-0.2-6.5-0.3-9.7c-0.1-4.7-0.3-9.5-0.4-14.2c-0.1-3.5-0.2-6.9-0.3-10.4c-0.1-3.6-0.2-7.3-0.3-10.9
		c-0.1-3.6-0.2-7.2-0.3-10.8c-0.1-3.6-0.2-7.1-0.3-10.7c-0.1-2.4-0.2-4.9-0.2-7.3c0-3.2,1.3-5.8,3.9-7.6c2.8-2,4.7-4.7,5.4-8.1
		c0.3-1.7,0.1-3.4,0-5c-0.1-1.4-0.2-2.7-0.3-4.1c-0.2-2.5-0.4-4.9-0.5-7.4c-0.1-1.8-0.2-3.6-0.4-5.4c-0.2-2.5-0.3-5-0.5-7.5
		c-0.1-1.8-0.2-3.6-0.4-5.4c-0.1-1.3-0.2-2.6-0.2-3.9c0-0.8-0.4-1.2-1.1-1.4C25.1,10.2,5.8,10.5,5.4,11.1z"/>

    <line class="st0" x1="20.1" y1="11.7" x2="20.1" y2="41.4"/>
    <line class="st0" x1="12.1" y1="11.7" x2="12.1" y2="41.4"/>

</symbol><symbol id="ice-cream" viewBox="0 0 53.9 108.9">
    <path class="st0" d="M22.8,97.8L2.3,34.4h49.2l-22.7,71.9c-0.6,1.5-2.7,1.5-3.2,0l-0.9-2.7"/>
    <line class="st0" x1="51.6" y1="34.4" x2="8.9" y2="54.7"/>
    <line class="st0" x1="43.9" y1="58.6" x2="15.3" y2="74.3"/>
    <line class="st0" x1="35.8" y1="84.1" x2="21.4" y2="93.3"/>
    <path class="st0" d="M51.3,34.3c0.7-2.3,1.1-4.8,1.1-7.4C52.4,12.9,41,1.5,26.9,1.5C12.9,1.5,1.5,12.9,1.5,26.9
	c0,2.6,0.4,5.1,1.1,7.4H51.3z"/>
    <path class="st0" d="M16.9,14.4c-3.5,2.9-5.8,7.3-5.8,12.2"/>
    <path class="st0" d="M26.9,10.8c-2.2,0-4.3,0.4-6.2,1.2"/>
</symbol><symbol id="oil-industry" viewBox="0 0 213.5 129.6">
<path d="M92.2,80.3c-8.5-0.1-14.4-3.9-20.6-8.5c-7.2-5.3-14.5-10.4-21.8-15.4c-2.5-1.7-5-3.8-5.7-6.6c-1.7-7.3-7.6-10.3-12.9-14.1
	C22.6,29.6,14,23.5,5.4,17.4c-6.2-4.4-6.8-7.3-2.8-13c3.6-5.1,7.9-5.7,13.6-1.7C29.1,11.8,42,21,54.9,30.1
	c16.6,11.7,33.2,23.3,49.8,35c6.8,4.8,6.8,10.1-0.9,13.3C101,79.5,97.1,80.3,92.2,80.3z M93.1,75c5.3,0,9.6-1.5,9.6-3.2
	c0-0.5-1.8-2.1-3-2.9C84.1,57.7,68.5,46.6,52.9,35.5C39.3,25.9,25.6,16.4,12,6.7c-2.1-1.5-3.4-1.2-5,0.7C5.3,9.5,6,11,7.9,12.4
	c0.5,0.4,1,0.9,1.5,1.3C19.9,21,30.6,28.3,41,35.7c2.8,2,6.1,3.6,6.6,7.6c0.6,4.5,3.6,7.3,7,9.8c8.1,5.8,16.2,11.4,24.2,17.3
	C82.9,73.3,87.4,74.7,93.1,75z"/>
    <g>
	<path d="M43.9,90.1c2.7-2.1,5-2.1,7.9,0.5c7.4,6.5,15.3,12.6,22.9,18.9c5,4.1,10.5,6.4,16.9,6.7c2,0.1,79,0,81.1-0.1
		c8.4-0.6,12.4-5.2,12.6-14.4c0.1-7.7,0.8-35.3,0.6-37.8c-0.6-6.8-4.9-12.5-15.6-20.7c-1.2-0.9-2.3-1.8-3.4-2.8
		c-11.4-9.9-18.6-10.8-31-10.3c-22,0.9-44,0.2-66,0.3c-1.6,0-3.3-0.5-5.1,0.8c3.1,2.9,6.3,5,10.8,4.9c22.3-0.2,44.7,0,67-0.1
		c5.4,0,9.5,0.8,14.2,4.3c0.6,0.5,1.3,1,1.9,1.4c5.7,3.8,9.8,7.3,14.7,12.7c-3,0-4.8,0-6.6,0c-14.8,0-29.7,0-44.5,0
		c-2.2,0-4.8,0.1-4.8,2.9c0,2.4,2.4,2.6,4.4,2.7c0.3,0,0.7,0,1,0c16.2,0,32.4,0,48.6,0c7.4,0,8.3,0.8,8.3,8.2c0.1,10.7,0,21.3,0,32
		c0,8.2-2.1,10.4-10.4,10.4c-25,0.1-50,0.1-75,0c-4.6,0-9.3-0.2-13.3-3.4c-8.9-7.2-17.9-14.4-27-21.8c10.5-4.9,19.1-3.7,22.8,3.7
		c1.7,3.5,2.8,7,2.7,11c0,1.8,0.7,3.5,2.7,3.5c2.1,0.1,2.5-1.8,2.8-3.5c0.6-3.2-0.4-6.4-1.4-9.3c-2.6-7.7-8.3-14.6-18.5-14.2
		c-8.7,0.3-16,4-23.3,7.9c-1.8,1-3.6,2.4-5.5,0.8c-9.1-7.8-18.2-15.8-27.3-23.8c10.3-5.9,25.1-8.6,33.2,2.3c1.2,1.6,3,1.7,4.4,0.5
		c1.7-1.3,1-2.9-0.2-4.4c-2.7-3.2-5.7-5.8-9.8-7.2c-12.1-4.3-22.9-0.7-33.3,5c-3.7,2-2.4,4.6,0.1,6.7c9.5,8.2,19.3,16,28.5,24.5
		C36.4,92.8,39.6,93.4,43.9,90.1z"/>
        <path d="M211.4,113.6c-4.6-6.4-11.1-11.1-17.5-15.8c-1.5-1.1-3.1-2.5-4.7-0.5c-1.7,2.2-0.1,3.7,1.5,5c2.1,1.7,4.3,3.1,6.2,4.9
		c2.2,1.9,11.5,9.1,11.6,14.3c0,0,0,0,0,0c0,1.2-1,2.1-2.2,2.1h-5.7c-2.5-0.2-4.9,0-7.4,0h-1.7v0c-39.8-0.1-79.6-0.1-119.3,0
		c-3.3,0-6.1-0.7-8.7-2.8c-13-10.2-26.1-20.2-39.1-30.3c-1.8-1.4-4-3-5.7-1.1c-2,2.2,0.1,4,2.1,5.6c11.4,8.7,22.6,17.7,34.1,26.4
		c5.3,4,10,8.4,17.9,8.2c19.6-0.7,39.3-0.2,58.9-0.2c20,0,40-0.1,60,0l18.7,0c0,0,0,0,0.1,0l0.1,0v0c1.1,0,2.3-0.6,2.5-1.9
		C213.7,122.8,214.2,117.5,211.4,113.6z"/>
</g>
</symbol><symbol id="pustry-industry" viewBox="0 0 115.3 127.2">
		<path class="st0" d="M57.2,114.6c-30,0-40.5-6.8-44-10.8c-1.4-1.6-2-3.7-1.7-5.8l6.8-47C19.7,40.4,29,32.4,39.7,32.4H75
			c10.7,0,19.7,7.7,21.4,18.3l7.4,47.1v0c0.3,2.2-0.4,4.5-1.9,6.1C98.1,107.8,87.2,114.6,57.2,114.6z M39.7,36.4
			c-8.7,0-16.2,6.5-17.5,15.1l-6.8,47c-0.1,0.9,0.1,1.9,0.8,2.6c2.5,2.8,11.5,9.5,41,9.5c29.5,0,39.1-6.6,41.8-9.5
			c0.7-0.7,1-1.7,0.8-2.7l-7.4-47.1c-1.4-8.6-8.7-14.9-17.5-14.9H39.7z"/>
		<path class="st0" d="M54.9,76.3c-4.9,0-7.7-4.3-10-8c-1.5-2.3-3-4.7-4.9-6c-2.3-1.6-4-0.5-7.5,2.3c-2.3,1.9-5,4.1-8.2,4.3
			c-3.1,0.2-4.8-0.9-5.7-1.9c-2.3-2.5-1.7-6.3-1.6-6.7l3.9,0.7l-2-0.3l2,0.3c-0.1,0.6-0.2,2.4,0.6,3.4c0.5,0.5,1.3,0.7,2.5,0.6
			c2-0.2,4-1.7,6-3.4c3.2-2.6,7.3-5.9,12.3-2.6c2.6,1.8,4.4,4.5,6.1,7.1c3.1,4.9,5,7.4,9.5,5.4c4.1-1.8,6.6-4.7,8.8-7.3
			c2.7-3.1,5.4-6.3,10.2-5.4c2.1,0.4,4.2,1.4,6.2,2.4c2.8,1.4,5.4,2.7,7.4,2c1.3-0.5,2.5-2,3.6-4.5l3.7,1.5
			c-1.5,3.6-3.4,5.8-5.8,6.7c-3.6,1.3-7.1-0.4-10.5-2.1c-1.9-0.9-3.6-1.8-5.2-2.1c-2.4-0.5-3.7,1-6.4,4.1c-2.4,2.7-5.3,6.1-10.3,8.3
			C57.7,76,56.2,76.3,54.9,76.3z"/>
		<path class="st0" d="M57.6,127.2C25.3,127.2,0,115.1,0,99.8c0-5.1,2.8-10,8.1-14.2l2.5,3.1C7.6,91.1,4,95,4,99.8
			c0,12.7,24.6,23.4,53.6,23.4c29.1,0,53.6-10.7,53.6-23.4c0-4.8-3.6-8.7-6.6-11.1l2.5-3.1c5.3,4.2,8.1,9.2,8.1,14.2
			C115.3,115.1,89.9,127.2,57.6,127.2z"/>
		<path class="st0" d="M57.3,36.4c-6.1,0-11-4.9-11-11c0-6.1,4.9-11,11-11c6.1,0,11,4.9,11,11C68.3,31.4,63.3,36.4,57.3,36.4z
			 M57.3,18.3c-3.9,0-7,3.2-7,7c0,3.9,3.2,7,7,7c3.9,0,7-3.2,7-7C64.3,21.5,61.1,18.3,57.3,18.3z"/>
		<path class="st0" d="M69.7,33.3l-1.5-3.7C83.4,23.4,82.6,9.8,81.7,4.6c-6.3,2.3-11.5,6.1-15.3,11.3l-3.2-2.4
			C68,7,74.5,2.5,82.6,0.1c0.5-0.2,1.1-0.1,1.5,0.2c0.5,0.3,0.8,0.7,1,1.2C85.2,1.7,91.5,24.4,69.7,33.3z"/>
</symbol><symbol id="quick-frozen-products" viewBox="0 0 244.5 244.5">
    <circle class="st0" cx="122.7" cy="121.9" r="22"/>
	<path class="st1" d="M119.1,48.1v52.1c1.2-0.2,2.3-0.3,3.6-0.3c0.9,0,1.8,0.1,2.7,0.2v-52l31.4-31.4c1.2-1.2,1.2-3.2,0-4.4
		c-1.2-1.2-3.2-1.2-4.4,0l-27,27V3.6c0-1.7-1.4-3.1-3.1-3.1c-1.7,0-3.1,1.4-3.1,3.1v35.6l-27-27c-1.2-1.2-3.2-1.2-4.4,0
		c-1.2,1.2-1.2,3.2,0,4.4L119.1,48.1z"/>
        <path class="st1" d="M101,125.4c-0.2-1.1-0.3-2.3-0.3-3.5c0-0.9,0.1-1.8,0.2-2.7H48.1L16.6,87.7c-1.2-1.2-3.2-1.2-4.4,0
		c-1.2,1.2-1.2,3.2,0,4.4l27,27H3.6c-1.7,0-3.1,1.4-3.1,3.1c0,1.7,1.4,3.1,3.1,3.1h35.6l-27,27c-1.2,1.2-1.2,3.2,0,4.4
		c0.6,0.6,1.4,0.9,2.2,0.9c0.8,0,1.6-0.3,2.2-0.9l31.4-31.4H101z"/>
        <path class="st1" d="M23.1,72h44.5l37.2,37.2c1.2-1.7,2.7-3.2,4.3-4.5l-37-37V23.1c0-1.7-1.4-3.1-3.1-3.1c-1.7,0-3.1,1.4-3.1,3.1
		v38.2L40.6,36.2c-1.2-1.2-3.2-1.2-4.4,0c-1.2,1.2-1.2,3.2,0,4.4l25.2,25.2H23.1c-1.7,0-3.1,1.4-3.1,3.1S21.4,72,23.1,72z"/>
        <path class="st1" d="M140.3,108.7L176.9,72h44.5c1.7,0,3.1-1.4,3.1-3.1s-1.4-3.1-3.1-3.1h-38.2l25.2-25.2c1.2-1.2,1.2-3.2,0-4.4
		c-1.2-1.2-3.2-1.2-4.4,0l-25.2,25.2V23.1c0-1.7-1.4-3.1-3.1-3.1c-1.7,0-3.1,1.4-3.1,3.1v44.5l-36.7,36.7
		C137.5,105.5,139,107,140.3,108.7z"/>
        <path class="st1" d="M221.4,172.5h-44.5l-37-37c-1.3,1.6-2.8,3.1-4.5,4.3l37.1,37.1v44.5c0,1.7,1.4,3.1,3.1,3.1
		c1.7,0,3.1-1.4,3.1-3.1v-38.2l25.2,25.2c0.6,0.6,1.4,0.9,2.2,0.9c0.8,0,1.6-0.3,2.2-0.9c1.2-1.2,1.2-3.2,0-4.4l-25.2-25.2h38.2
		c1.7,0,3.1-1.4,3.1-3.1S223.1,172.5,221.4,172.5z"/>
        <path class="st1" d="M240.9,119.1h-35.6l27-27c1.2-1.2,1.2-3.2,0-4.4c-1.2-1.2-3.2-1.2-4.4,0l-31.4,31.4h-51.9
		c0.1,0.9,0.2,1.8,0.2,2.7c0,1.2-0.1,2.4-0.3,3.5h52.1l31.4,31.4c0.6,0.6,1.4,0.9,2.2,0.9c0.8,0,1.6-0.3,2.2-0.9
		c1.2-1.2,1.2-3.2,0-4.4l-27-27h35.6c1.7,0,3.1-1.4,3.1-3.1C244,120.5,242.6,119.1,240.9,119.1z"/>
        <path class="st1" d="M125.4,196.5v-52.8c-0.9,0.1-1.8,0.2-2.7,0.2c-1.2,0-2.4-0.1-3.6-0.3v52.9l-31.4,31.4c-1.2,1.2-1.2,3.2,0,4.4
		c0.6,0.6,1.4,0.9,2.2,0.9c0.8,0,1.6-0.3,2.2-0.9l27-27v35.6c0,1.7,1.4,3.1,3.1,3.1c1.7,0,3.1-1.4,3.1-3.1v-35.6l27,27
		c0.6,0.6,1.4,0.9,2.2,0.9c0.8,0,1.6-0.3,2.2-0.9c1.2-1.2,1.2-3.2,0-4.4L125.4,196.5z"/>
        <path class="st1" d="M105.1,135l-37.5,37.5H23.1c-1.7,0-3.1,1.4-3.1,3.1s1.4,3.1,3.1,3.1h38.2l-25.2,25.2c-1.2,1.2-1.2,3.2,0,4.4
		c0.6,0.6,1.4,0.9,2.2,0.9c0.8,0,1.6-0.3,2.2-0.9l25.2-25.2v38.2c0,1.7,1.4,3.1,3.1,3.1c1.7,0,3.1-1.4,3.1-3.1v-44.5l37.5-37.5
		C107.8,138.2,106.3,136.7,105.1,135z"/>
</symbol><symbol id="snacks" viewBox="0 0 162 209.5">
    <path class="st0" d="M111.8,135.6H56.7c-3.6,0-6.5-2.9-6.5-6.5V80.5c0-3.6,2.9-6.5,6.5-6.5h48.6c3.6,0,6.5,2.9,6.5,6.5v28.3"/>
    <path class="st0" d="M3,206.5h156v-14.1l-7.7-13.4c-5.5-9.6-8.4-20.5-8.4-31.6V60.6c0-12.6,3.7-24.9,10.7-35.3l5.4-8.1V3H3v14.2
	l5.4,8.1c7,10.5,10.7,22.7,10.7,35.3v86.9c0,11.1-2.9,22-8.4,31.6L3,192.5V206.5z"/>
    <line class="st0" x1="3" y1="17.2" x2="159" y2="17.2"/>
    <line class="st0" x1="159" y1="192.5" x2="3" y2="192.5"/>
    <line class="st0" x1="128.4" y1="55.7" x2="128.4" y2="153.1"/>
</symbol><symbol id="cart" viewBox="0 0 512 512">
    <path d="m504.399 185.065c-6.761-8.482-16.904-13.348-27.83-13.348h-98.604l-53.469-122.433c-3.315-7.591-12.157-11.06-19.749-7.743-7.592 3.315-11.059 12.158-7.743 19.75l48.225 110.427h-178.458l48.225-110.427c3.315-7.592-.151-16.434-7.743-19.75-7.591-3.317-16.434.15-19.749 7.743l-53.469 122.434h-98.604c-10.926 0-21.069 4.865-27.83 13.348-6.637 8.328-9.086 19.034-6.719 29.376l52.657 230c3.677 16.06 17.884 27.276 34.549 27.276h335.824c16.665 0 30.872-11.216 34.549-27.276l52.657-230.001c2.367-10.342-.082-21.048-6.719-29.376zm-80.487 256.652h-335.824c-2.547 0-4.778-1.67-5.305-3.972l-52.657-229.998c-.413-1.805.28-3.163.936-3.984.608-.764 1.985-2.045 4.369-2.045h85.503l-3.929 8.997c-3.315 7.592.151 16.434 7.743 19.75 1.954.854 3.99 1.258 5.995 1.258 5.782 0 11.292-3.363 13.754-9l9.173-21.003h204.662l9.173 21.003c2.462 5.638 7.972 9 13.754 9 2.004 0 4.041-.404 5.995-1.258 7.592-3.315 11.059-12.158 7.743-19.75l-3.929-8.997h85.503c2.384 0 3.761 1.281 4.369 2.045.655.822 1.349 2.18.936 3.983l-52.657 230c-.528 2.301-2.76 3.971-5.307 3.971z"/>
    <path d="m166 266.717c-8.284 0-15 6.716-15 15v110c0 8.284 6.716 15 15 15s15-6.716 15-15v-110c0-8.284-6.715-15-15-15z"/>
    <path d="m256 266.717c-8.284 0-15 6.716-15 15v110c0 8.284 6.716 15 15 15s15-6.716 15-15v-110c0-8.284-6.716-15-15-15z"/>
    <path d="m346 266.717c-8.284 0-15 6.716-15 15v110c0 8.284 6.716 15 15 15s15-6.716 15-15v-110c-.001-8.284-6.716-15-15-15z"/>
</symbol><symbol id="search" viewBox="0 0 512.002 512.002">
    <path d="m495.594 416.408-134.086-134.095c14.685-27.49 22.492-58.333 22.492-90.312 0-50.518-19.461-98.217-54.8-134.31-35.283-36.036-82.45-56.505-132.808-57.636-1.46-.033-2.92-.054-4.392-.054-105.869 0-192 86.131-192 192s86.131 192 192 192c1.459 0 2.93-.021 4.377-.054 30.456-.68 59.739-8.444 85.936-22.436l134.085 134.075c10.57 10.584 24.634 16.414 39.601 16.414s29.031-5.83 39.589-16.403c10.584-10.577 16.413-24.639 16.413-39.597s-5.827-29.019-16.407-39.592zm-299.932-64.453c-1.211.027-2.441.046-3.662.046-88.224 0-160-71.776-160-160s71.776-160 160-160c1.229 0 2.449.019 3.671.046 86.2 1.935 156.329 73.69 156.329 159.954 0 86.274-70.133 158.029-156.338 159.954zm277.296 121.02c-4.525 4.531-10.547 7.026-16.958 7.026s-12.434-2.495-16.966-7.034l-129.294-129.284c6.813-5.307 13.319-11.094 19.458-17.365 5.174-5.285 9.998-10.825 14.48-16.58l129.291 129.3c4.535 4.532 7.032 10.556 7.032 16.962s-2.496 12.431-7.043 16.975z"/>
    <path d="m192 64.001c-70.58 0-128 57.42-128 128s57.42 128 128 128 128-57.42 128-128-57.42-128-128-128zm0 224c-52.935 0-96-43.065-96-96s43.065-96 96-96 96 43.065 96 96-43.065 96-96 96z"/>
</symbol><symbol id="user" viewBox="0 0 59.4 67.2">

    <circle class="st0" cx="29.7" cy="19.8" r="18.8"/>
    <path class="st0" d="M1,67.2c0-15.9,12.9-28.7,28.7-28.7s28.7,12.9,28.7,28.7"/>
</symbol><symbol id="chevron-down" viewBox="0 0 512 512">
		<path d="M298.4,368l207.7-207.3c7.8-7.8,7.8-20.5,0-28.3c-7.8-7.8-20.5-7.8-28.3,0L270.1,339.7c-7.8,7.8-20.5,7.8-28.3,0
			L34.1,132.4c-7.8-7.8-20.5-7.8-28.3,0c-3.9,3.9-5.8,9-5.8,14.1c0,5.1,2,10.3,5.9,14.2l207.7,207.3C237,391.3,275,391.3,298.4,368z
			"/>
</symbol><symbol id="chevron-up" viewBox="0 0 512 512">
		<path d="M213.6,144L5.9,351.3c-7.8,7.8-7.8,20.5,0,28.3c7.8,7.8,20.5,7.8,28.3,0l207.7-207.3c7.8-7.8,20.5-7.8,28.3,0l207.7,207.3
			c7.8,7.8,20.5,7.8,28.3,0c3.9-3.9,5.8-9,5.8-14.1c0-5.1-2-10.3-5.9-14.2L298.4,144.1C275,120.7,237,120.7,213.6,144z"/>
</symbol></svg>